<mxfile host="www.draw.io" modified="2019-11-16T07:01:48.867Z" agent="Mozilla/5.0 (Windows NT 10.0; Win64; x64) AppleWebKit/537.36 (KHTML, like Gecko) Chrome/78.0.3904.97 Safari/537.36" etag="BFXclu5pgZm3oWMpbJGW" version="12.2.6" type="github" pages="1">
  <diagram id="UWl-4crLRYwF7wUx09or" name="Page-1">
    <mxGraphModel dx="1024" dy="534" grid="1" gridSize="10" guides="1" tooltips="1" connect="1" arrows="1" fold="1" page="1" pageScale="1" pageWidth="827" pageHeight="1169" math="0" shadow="0">
      <root>
        <mxCell id="0"/>
        <mxCell id="1" parent="0"/>
        <mxCell id="BBlOOyhZ7gnegx1fQNet-1" value="Idle" style="swimlane;childLayout=stackLayout;horizontal=1;startSize=30;horizontalStack=0;fillColor=#FFFFFF;fontColor=#030000;rounded=1;fontSize=14;fontStyle=0;strokeWidth=2;resizeParent=0;resizeLast=1;shadow=0;dashed=0;align=center;" vertex="1" parent="1">
          <mxGeometry x="350" y="90" width="160" height="60" as="geometry"/>
        </mxCell>
        <mxCell id="BBlOOyhZ7gnegx1fQNet-2" value="do / show home page" style="align=left;strokeColor=none;fillColor=none;spacingLeft=4;fontSize=12;verticalAlign=top;resizable=0;rotatable=0;part=1;" vertex="1" parent="BBlOOyhZ7gnegx1fQNet-1">
          <mxGeometry y="30" width="160" height="30" as="geometry"/>
        </mxCell>
        <mxCell id="BBlOOyhZ7gnegx1fQNet-3" value="Registration" style="swimlane;childLayout=stackLayout;horizontal=1;startSize=30;horizontalStack=0;fillColor=#FFFFFF;fontColor=#030000;rounded=1;fontSize=14;fontStyle=0;strokeWidth=2;resizeParent=0;resizeLast=1;shadow=0;dashed=0;align=center;" vertex="1" parent="1">
          <mxGeometry x="340" y="190" width="160" height="90" as="geometry"/>
        </mxCell>
        <mxCell id="BBlOOyhZ7gnegx1fQNet-4" value="entry / ask for camera permission&#xa;do / fill the details&#xa;exit / download QR code" style="align=left;strokeColor=none;fillColor=none;spacingLeft=4;fontSize=12;verticalAlign=top;resizable=0;rotatable=0;part=1;" vertex="1" parent="BBlOOyhZ7gnegx1fQNet-3">
          <mxGeometry y="30" width="160" height="60" as="geometry"/>
        </mxCell>
        <mxCell id="BBlOOyhZ7gnegx1fQNet-5" value="Login" style="swimlane;childLayout=stackLayout;horizontal=1;startSize=30;horizontalStack=0;fillColor=#FFFFFF;fontColor=#030000;rounded=1;fontSize=14;fontStyle=0;strokeWidth=2;resizeParent=0;resizeLast=1;shadow=0;dashed=0;align=center;" vertex="1" parent="1">
          <mxGeometry x="570" y="350" width="160" height="80" as="geometry"/>
        </mxCell>
        <mxCell id="BBlOOyhZ7gnegx1fQNet-6" value="entry / ask to select QR code&#xa;do / upload the QR code&#xa;" style="align=left;strokeColor=none;fillColor=none;spacingLeft=4;fontSize=12;verticalAlign=top;resizable=0;rotatable=0;part=1;" vertex="1" parent="BBlOOyhZ7gnegx1fQNet-5">
          <mxGeometry y="30" width="160" height="50" as="geometry"/>
        </mxCell>
        <mxCell id="BBlOOyhZ7gnegx1fQNet-7" value="Verification" style="swimlane;childLayout=stackLayout;horizontal=1;startSize=30;horizontalStack=0;fillColor=#FFFFFF;fontColor=#030000;rounded=1;fontSize=14;fontStyle=0;strokeWidth=2;resizeParent=0;resizeLast=1;shadow=0;dashed=0;align=center;" vertex="1" parent="1">
          <mxGeometry x="320" y="300" width="160" height="80" as="geometry"/>
        </mxCell>
        <mxCell id="BBlOOyhZ7gnegx1fQNet-8" value="entry / ask for camera permission&#xa;do /  capture the face image&#xa;exit /  verify the user" style="align=left;strokeColor=none;fillColor=none;spacingLeft=4;fontSize=12;verticalAlign=top;resizable=0;rotatable=0;part=1;" vertex="1" parent="BBlOOyhZ7gnegx1fQNet-7">
          <mxGeometry y="30" width="160" height="50" as="geometry"/>
        </mxCell>
        <mxCell id="BBlOOyhZ7gnegx1fQNet-9" value="Voting" style="swimlane;childLayout=stackLayout;horizontal=1;startSize=30;horizontalStack=0;fillColor=#FFFFFF;fontColor=#030000;rounded=1;fontSize=14;fontStyle=0;strokeWidth=2;resizeParent=0;resizeLast=1;shadow=0;dashed=0;align=center;" vertex="1" parent="1">
          <mxGeometry x="320" y="460" width="160" height="80" as="geometry"/>
        </mxCell>
        <mxCell id="BBlOOyhZ7gnegx1fQNet-10" value="entry / show list of candidates&#xa;do / vote for any candidate &#xa;exit / " style="align=left;strokeColor=none;fillColor=none;spacingLeft=4;fontSize=12;verticalAlign=top;resizable=0;rotatable=0;part=1;" vertex="1" parent="BBlOOyhZ7gnegx1fQNet-9">
          <mxGeometry y="30" width="160" height="50" as="geometry"/>
        </mxCell>
      </root>
    </mxGraphModel>
  </diagram>
</mxfile>
